<svg width="40" height="40" viewBox="0 0 40 40" fill="none" xmlns="http://www.w3.org/2000/svg">
<path d="M24.9997 18.3335H36.6663V21.6668H24.9997V18.3335ZM26.6663 25.0002H36.6663V28.3335H26.6663V25.0002ZM23.333 11.6668H36.6663V15.0002H23.333V11.6668ZM6.66634 31.6668H23.333V30.0002C23.333 25.4052 19.5947 21.6668 14.9997 21.6668H11.6663C7.07134 21.6668 3.33301 25.4052 3.33301 30.0002V31.6668H6.66634ZM13.333 20.0002C16.658 20.0002 19.1663 17.4918 19.1663 14.1668C19.1663 10.8418 16.658 8.3335 13.333 8.3335C10.008 8.3335 7.49967 10.8418 7.49967 14.1668C7.49967 17.4918 10.008 20.0002 13.333 20.0002Z" fill="#6F7ECD"/>
</svg>