<svg width="40" height="40" viewBox="0 0 40 40" fill="none" xmlns="http://www.w3.org/2000/svg">
<path d="M33.333 10.0002H28.333V6.66683C28.333 4.8285 26.838 3.3335 24.9997 3.3335H14.9997C13.1613 3.3335 11.6663 4.8285 11.6663 6.66683V10.0002H6.66634C4.82801 10.0002 3.33301 11.4952 3.33301 13.3335V31.6668C3.33301 33.5052 4.82801 35.0002 6.66634 35.0002H33.333C35.1713 35.0002 36.6663 33.5052 36.6663 31.6668V13.3335C36.6663 11.4952 35.1713 10.0002 33.333 10.0002ZM24.9997 6.66683V10.0002H14.9997V6.66683H24.9997ZM13.333 13.3335H33.333V18.3335H6.66634V13.3335H13.333ZM6.66634 31.6668V21.6668H16.6663V25.0002H23.333V21.6668H33.333L33.3347 31.6668H6.66634Z" fill="#6F7ECD"/>
</svg>