<svg width="40" height="40" viewBox="0 0 40 40" fill="none" xmlns="http://www.w3.org/2000/svg">
<path d="M16.6663 30.0002C19.6246 29.9996 22.4977 29.0092 24.828 27.1868L32.1547 34.5135L34.5113 32.1568L27.1847 24.8302C29.008 22.4996 29.999 19.6259 29.9997 16.6668C29.9997 9.31516 24.018 3.3335 16.6663 3.3335C9.31467 3.3335 3.33301 9.31516 3.33301 16.6668C3.33301 24.0185 9.31467 30.0002 16.6663 30.0002ZM16.6663 6.66683C22.1813 6.66683 26.6663 11.1518 26.6663 16.6668C26.6663 22.1818 22.1813 26.6668 16.6663 26.6668C11.1513 26.6668 6.66634 22.1818 6.66634 16.6668C6.66634 11.1518 11.1513 6.66683 16.6663 6.66683Z" fill="#6F7ECD"/>
<path d="M19.0194 14.3101C19.6511 14.9435 19.9994 15.7801 19.9994 16.6668H23.3327C23.3342 15.7909 23.162 14.9233 22.8262 14.1143C22.4903 13.3053 21.9975 12.5709 21.3761 11.9535C18.8527 9.43348 14.4777 9.43348 11.9561 11.9535L14.3094 14.3135C15.5761 13.0501 17.7594 13.0535 19.0194 14.3101Z" fill="#6F7ECD"/>
</svg>