<svg width="40" height="40" viewBox="0 0 40 40" fill="none" xmlns="http://www.w3.org/2000/svg">
<path d="M20 36.6665C28.1317 36.6665 35 29.7982 35 21.6665C35 13.5348 28.1317 6.6665 20 6.6665C11.8683 6.6665 5 13.5348 5 21.6665C5 29.7982 11.8683 36.6665 20 36.6665ZM20 9.99984C26.3233 9.99984 31.6667 15.3432 31.6667 21.6665C31.6667 27.9898 26.3233 33.3332 20 33.3332C13.6767 33.3332 8.33333 27.9898 8.33333 21.6665C8.33333 15.3432 13.6767 9.99984 20 9.99984Z" fill="#6F7ECD"/>
<path d="M28.8066 6.17836L31.16 3.81836L36.1766 8.81836L33.8216 11.18L28.8066 6.17836Z" fill="#6F7ECD"/>
<path d="M8.80296 3.82324L11.1663 6.17658L6.18296 11.1766L3.82129 8.82158L8.80296 3.82324Z" fill="#6F7ECD"/>
<path d="M18.333 15H21.6663V23.3333H18.333V15ZM18.333 25H21.6663V28.3333H18.333V25Z" fill="#6F7ECD"/>
</svg>