<svg width="13" height="13" viewBox="0 0 13 13" fill="none" xmlns="http://www.w3.org/2000/svg">
<g opacity="0.5">
<path d="M6.5 1.21875C4.48145 1.21875 2.84375 2.77748 2.84375 4.69727C2.84375 6.90625 5.28125 10.4069 6.17627 11.616C6.21342 11.667 6.26211 11.7085 6.31838 11.7372C6.37464 11.7658 6.43687 11.7807 6.5 11.7807C6.56313 11.7807 6.62536 11.7658 6.68162 11.7372C6.73789 11.7085 6.78658 11.667 6.82373 11.616C7.71875 10.4074 10.1562 6.90803 10.1562 4.69727C10.1562 2.77748 8.51855 1.21875 6.5 1.21875Z" stroke="black" stroke-linecap="round" stroke-linejoin="round"/>
<path d="M6.5 6.09375C7.1731 6.09375 7.71875 5.5481 7.71875 4.875C7.71875 4.2019 7.1731 3.65625 6.5 3.65625C5.8269 3.65625 5.28125 4.2019 5.28125 4.875C5.28125 5.5481 5.8269 6.09375 6.5 6.09375Z" stroke="black" stroke-linecap="round" stroke-linejoin="round"/>
</g>
</svg>