<svg width="98" height="26" viewBox="0 0 98 26" fill="none" xmlns="http://www.w3.org/2000/svg">
<path d="M3.8 25.05C2.43333 25.05 1.39167 24.8 0.675 24.3L1.725 21.475C2.175 21.7917 2.725 21.95 3.375 21.95C3.875 21.95 4.26667 21.7833 4.55 21.45C4.83333 21.1333 4.975 20.65 4.975 20V6.55H8.875V19.975C8.875 21.5417 8.425 22.775 7.525 23.675C6.64167 24.5917 5.4 25.05 3.8 25.05ZM6.925 4.675C6.20833 4.675 5.625 4.46667 5.175 4.05C4.725 3.63333 4.5 3.11667 4.5 2.5C4.5 1.88333 4.725 1.36667 5.175 0.949999C5.625 0.533332 6.20833 0.324998 6.925 0.324998C7.64167 0.324998 8.225 0.524999 8.675 0.925C9.125 1.325 9.35 1.825 9.35 2.425C9.35 3.075 9.125 3.61667 8.675 4.05C8.225 4.46667 7.64167 4.675 6.925 4.675ZM18.366 20.2C16.9493 20.2 15.6743 19.9083 14.541 19.325C13.4243 18.725 12.5493 17.9 11.916 16.85C11.2827 15.8 10.966 14.6083 10.966 13.275C10.966 11.9417 11.2827 10.75 11.916 9.7C12.5493 8.65 13.4243 7.83333 14.541 7.25C15.6743 6.65 16.9493 6.35 18.366 6.35C19.7827 6.35 21.0493 6.65 22.166 7.25C23.2827 7.83333 24.1577 8.65 24.791 9.7C25.4243 10.75 25.741 11.9417 25.741 13.275C25.741 14.6083 25.4243 15.8 24.791 16.85C24.1577 17.9 23.2827 18.725 22.166 19.325C21.0493 19.9083 19.7827 20.2 18.366 20.2ZM18.366 17C19.366 17 20.1827 16.6667 20.816 16C21.466 15.3167 21.791 14.4083 21.791 13.275C21.791 12.1417 21.466 11.2417 20.816 10.575C20.1827 9.89167 19.366 9.55 18.366 9.55C17.366 9.55 16.541 9.89167 15.891 10.575C15.241 11.2417 14.916 12.1417 14.916 13.275C14.916 14.4083 15.241 15.3167 15.891 16C16.541 16.6667 17.366 17 18.366 17ZM35.7979 6.35C37.0479 6.35 38.1812 6.64167 39.1979 7.225C40.2312 7.79167 41.0395 8.6 41.6229 9.65C42.2062 10.6833 42.4979 11.8917 42.4979 13.275C42.4979 14.6583 42.2062 15.875 41.6229 16.925C41.0395 17.9583 40.2312 18.7667 39.1979 19.35C38.1812 19.9167 37.0479 20.2 35.7979 20.2C33.9479 20.2 32.5395 19.6167 31.5729 18.45V20H27.8479V1.45H31.7479V7.975C32.7312 6.89167 34.0812 6.35 35.7979 6.35ZM35.1229 17C36.1229 17 36.9395 16.6667 37.5729 16C38.2229 15.3167 38.5479 14.4083 38.5479 13.275C38.5479 12.1417 38.2229 11.2417 37.5729 10.575C36.9395 9.89167 36.1229 9.55 35.1229 9.55C34.1229 9.55 33.2979 9.89167 32.6479 10.575C32.0145 11.2417 31.6979 12.1417 31.6979 13.275C31.6979 14.4083 32.0145 15.3167 32.6479 16C33.2979 16.6667 34.1229 17 35.1229 17Z" fill="#4B5EC0"/>
<path d="M57.7836 13.325C57.7836 13.375 57.7586 13.725 57.7086 14.375H47.5336C47.7169 15.2083 48.1503 15.8667 48.8336 16.35C49.5169 16.8333 50.3669 17.075 51.3836 17.075C52.0836 17.075 52.7003 16.975 53.2336 16.775C53.7836 16.5583 54.2919 16.225 54.7586 15.775L56.8336 18.025C55.5669 19.475 53.7169 20.2 51.2836 20.2C49.7669 20.2 48.4253 19.9083 47.2586 19.325C46.0919 18.725 45.1919 17.9 44.5586 16.85C43.9253 15.8 43.6086 14.6083 43.6086 13.275C43.6086 11.9583 43.9169 10.775 44.5336 9.725C45.1669 8.65833 46.0253 7.83333 47.1086 7.25C48.2086 6.65 49.4336 6.35 50.7836 6.35C52.1003 6.35 53.2919 6.63333 54.3586 7.2C55.4253 7.76667 56.2586 8.58333 56.8586 9.65C57.4753 10.7 57.7836 11.925 57.7836 13.325ZM50.8086 9.3C49.9253 9.3 49.1836 9.55 48.5836 10.05C47.9836 10.55 47.6169 11.2333 47.4836 12.1H54.1086C53.9753 11.25 53.6086 10.575 53.0086 10.075C52.4086 9.55833 51.6753 9.3 50.8086 9.3ZM73.0551 13.325C73.0551 13.375 73.0301 13.725 72.9801 14.375H62.8051C62.9884 15.2083 63.4217 15.8667 64.1051 16.35C64.7884 16.8333 65.6384 17.075 66.6551 17.075C67.3551 17.075 67.9717 16.975 68.5051 16.775C69.0551 16.5583 69.5634 16.225 70.0301 15.775L72.1051 18.025C70.8384 19.475 68.9884 20.2 66.5551 20.2C65.0384 20.2 63.6967 19.9083 62.5301 19.325C61.3634 18.725 60.4634 17.9 59.8301 16.85C59.1967 15.8 58.8801 14.6083 58.8801 13.275C58.8801 11.9583 59.1884 10.775 59.8051 9.725C60.4384 8.65833 61.2967 7.83333 62.3801 7.25C63.4801 6.65 64.7051 6.35 66.0551 6.35C67.3717 6.35 68.5634 6.63333 69.6301 7.2C70.6967 7.76667 71.5301 8.58333 72.1301 9.65C72.7467 10.7 73.0551 11.925 73.0551 13.325ZM66.0801 9.3C65.1967 9.3 64.4551 9.55 63.8551 10.05C63.2551 10.55 62.8884 11.2333 62.7551 12.1H69.3801C69.2467 11.25 68.8801 10.575 68.2801 10.075C67.6801 9.55833 66.9467 9.3 66.0801 9.3ZM80.9266 14.725L79.0516 16.575V20H75.1516V1.45H79.0516V11.95L84.7516 6.55H89.4016L83.8016 12.25L89.9016 20H85.1766L80.9266 14.725Z" fill="#AAB4E7"/>
<path d="M93.9405 20.28C92.9838 20.28 92.1788 19.9533 91.5255 19.3C90.8721 18.6467 90.5455 17.83 90.5455 16.85C90.5455 15.8467 90.8721 15.0417 91.5255 14.435C92.1788 13.805 92.9838 13.49 93.9405 13.49C94.8971 13.49 95.7021 13.805 96.3555 14.435C97.0088 15.0417 97.3355 15.8467 97.3355 16.85C97.3355 17.83 97.0088 18.6467 96.3555 19.3C95.7021 19.9533 94.8971 20.28 93.9405 20.28Z" fill="#FFC955"/>
</svg>
